<?xml version="1.0" encoding="UTF-8"?><svg xmlns="http://www.w3.org/2000/svg" viewBox="0 0 288 288"><defs><style>.cls-1{fill:#fff;}.cls-2{fill:#ffa600;}.cls-3{isolation:isolate;}.cls-4,.cls-5{stroke-width:.49px;}.cls-4,.cls-5,.cls-6{fill:none;stroke:#823c30;stroke-miterlimit:10;}.cls-5{stroke-dasharray:0 0 0 5.88 1.96 1.47;}.cls-7{mix-blend-mode:multiply;opacity:.3;}.cls-8{fill:#ffae42;}.cls-6{stroke-width:.62px;}</style></defs><g class="cls-3"><g id="Layer_1"><g><path class="cls-7" d="M205.48,167.1c.17,3.44-2.31,6.13-3.57,9.31-1.46,3.73-3.7,7.34-6.52,10.59-3.52,4.06-5.27,8.82-11.05,11.6-2.59,1.25-5.59,1.9-8.35,2.92-3.15,1.17-5.97,2.78-9.09,3.99-2.87,1.11-5.85,1.43-8.92,1.99-9.61,1.75-20.29,2.09-29.4-1.32-2.13-.8-4.17-1.81-6.5-2.17-2.24-.35-4.63-.08-6.8-.7-2.27-.64-4.46-1.9-6.43-2.95-4.38-2.33-9.38-4.88-12.37-8.25-1.62-1.83-3.24-3.66-4.49-5.64-1.73-2.76-2.69-5.81-4.78-8.44-1.64-2.07-2.35-3.86-2.99-6.26-1.12-4.22-1.45-8.55-.97-12.83,.24-2.16,1.07-4.18,1.41-6.29,.38-2.36,.73-4.31,2.26-6.46,1.68-2.35,3.92-4.44,5.7-6.74,1.99-2.57,3.45-5.48,6.27-7.62,2.76-2.09,5.97-3.89,8.91-5.84,4.48-2.97,9.23-5.22,15.18-6.05,2.49-.35,5.08-.45,7.42-1.2,1.61-.52,3.04-1.33,4.62-1.9,4.03-1.44,10.15-.21,14.44,.09,4.89,.35,9.59,1.61,14.36,2.04,4.67,.42,8.18,2.26,11.75,4.49,2.89,1.81,5.79,3.62,8.68,5.43,6.59,4.12,11.68,9.26,15.15,15.18,2.07,3.52,4.78,6.96,5.6,10.81,.4,1.9,0,3.72-.06,5.6-.07,2.23,.42,4.43,.52,6.65Zm-7.29,4.65c.95-1.74,1.71-3.12,1.64-4.5-.04-.79-.14-1.61-.24-2.48-.17-1.4-.34-2.86-.29-4.42,.02-.66,.07-1.28,.13-1.87,.1-1.13,.18-2.1,0-2.95-.49-2.29-1.96-4.61-3.51-7.06-.56-.87-1.13-1.77-1.67-2.69-3.16-5.37-7.73-9.96-13.59-13.62l-8.68-5.43c-3.26-2.03-5.75-3.27-8.82-3.55-2.55-.23-4.97-.65-7.32-1.06-2.41-.42-4.69-.81-6.91-.97-1.12-.08-2.26-.2-3.46-.33-2.7-.3-6.4-.7-8.04-.15-.49,.17-1.05,.43-1.64,.69-.86,.39-1.82,.82-2.94,1.19l-.24,.08c-2.37,.76-4.69,1.03-6.75,1.26-.62,.07-1.24,.13-1.85,.22-1.62,.23-3.15,.59-4.67,1.1-2.53,.85-5.01,2.11-7.81,3.96-1.11,.73-2.24,1.44-3.34,2.12-1.91,1.19-3.72,2.32-5.31,3.53-1.4,1.06-2.47,2.63-3.62,4.29-.56,.8-1.13,1.63-1.77,2.46-.9,1.16-1.86,2.23-2.79,3.26-1.04,1.16-2.03,2.25-2.81,3.35-1.02,1.43-1.27,2.75-1.62,4.95-.18,1.12-.46,2.15-.73,3.15-.29,1.05-.55,2.05-.65,2.98-.43,3.89-.14,7.8,.88,11.63,.52,1.96,1.04,3.32,2.3,4.91,1.5,1.9,2.46,3.83,3.37,5.69,.55,1.11,1.07,2.16,1.67,3.12,1.07,1.7,2.53,3.35,4.08,5.1,2.25,2.53,6.31,4.68,10.24,6.77l1.47,.78c1.51,.81,3.08,1.66,4.37,2.02,.47,.13,1.41,.17,2.32,.21,1.09,.04,2.31,.1,3.65,.3,2.55,.4,4.62,1.23,6.45,1.97,.47,.19,.94,.38,1.41,.56,6.73,2.52,15.33,2.85,25.57,.99,.69-.13,1.38-.24,2.06-.35,1.93-.32,3.6-.6,5.09-1.1,.17-.06,.35-.12,.53-.19,1.27-.49,2.56-1.1,3.91-1.73,1.65-.78,3.36-1.58,5.27-2.29,.4-.15,.81-.29,1.22-.43,.78-.26,1.56-.51,2.34-.75,.68-.21,1.36-.42,2.03-.64,.92-.31,1.62-.59,2.22-.87,2.81-1.36,4.43-3.65,6.29-6.3,.92-1.32,1.88-2.68,3.06-4.04,2.53-2.92,4.54-6.19,5.83-9.46,.49-1.26,1.13-2.42,1.69-3.45Z"/><g><g><path class="cls-8" d="M195.38,161.13c.27,.46,0,1.01-.62,1.21-.61,.21-1.33,0-1.6-.46-.27-.46,0-1.01,.62-1.21,.61-.21,1.33,0,1.6,.46Z"/><path class="cls-8" d="M191.81,170.88c.27,.46,0,1-.61,1.21-.61,.2-1.33,0-1.6-.47-.28-.46,0-1,.61-1.21,.61-.2,1.33,0,1.6,.47Z"/><path class="cls-8" d="M191.69,154.83c.27,.46,0,1.01-.62,1.21-.61,.21-1.33,0-1.6-.46-.27-.46,0-1.01,.62-1.21,.61-.21,1.33,0,1.6,.46Z"/><path class="cls-8" d="M188.42,177.55c.27,.46,0,1-.62,1.21-.61,.2-1.33,0-1.6-.47-.27-.46,0-1,.62-1.21,.61-.2,1.33,0,1.6,.47Z"/><path class="cls-8" d="M188.23,162.53c.28,.46,0,1.01-.61,1.21-.61,.21-1.33,0-1.6-.46-.27-.46,0-1.01,.61-1.21,.61-.21,1.33,0,1.6,.46Z"/><path class="cls-8" d="M187.49,143.17c.27,.46,0,1.01-.62,1.22-.61,.2-1.33,0-1.6-.47-.27-.46,0-1,.62-1.21,.61-.2,1.33,0,1.6,.46Z"/><path class="cls-8" d="M178,133.8c.27,.46,0,1.01-.62,1.21-.61,.2-1.33,0-1.6-.46-.27-.46,0-1.01,.62-1.22,.61-.2,1.33,0,1.6,.47Z"/><path class="cls-8" d="M172.64,191.4c.27,.46,0,1-.62,1.21-.61,.2-1.33,0-1.6-.47-.27-.46,0-1,.61-1.21,.61-.2,1.33,0,1.61,.47Z"/><path class="cls-8" d="M170.36,134.36c.27,.46,0,1-.62,1.21-.61,.2-1.33,0-1.6-.47-.27-.46,0-1,.61-1.21,.61-.2,1.33,0,1.61,.47Z"/><path class="cls-8" d="M169.87,128.99c.27,.46,0,1.01-.62,1.21-.61,.21-1.33,0-1.6-.46-.27-.46,0-1.01,.62-1.21,.61-.21,1.33,0,1.6,.46Z"/><path class="cls-8" d="M168.75,165.56c.28,.46,0,1.01-.61,1.21-.61,.2-1.33,0-1.6-.46-.27-.46,0-1.01,.61-1.21,.61-.21,1.33,0,1.6,.46Z"/><path class="cls-8" d="M167.95,187.95c.27,.46,0,1.01-.62,1.21-.61,.21-1.33,0-1.6-.46-.27-.46,0-1.01,.62-1.21,.61-.2,1.33,0,1.6,.46Z"/><path class="cls-8" d="M167.58,194.11c.28,.46,0,1.01-.61,1.21-.61,.21-1.33,0-1.6-.46-.28-.46,0-1.01,.61-1.21,.61-.2,1.33,0,1.6,.46Z"/><path class="cls-8" d="M158.46,187.62c.27,.46,0,1.01-.62,1.21-.61,.21-1.33,0-1.6-.46-.27-.46,0-1.01,.62-1.21,.61-.21,1.33,0,1.6,.46Z"/><path class="cls-8" d="M153.78,175.12c.27,.46,0,1.01-.61,1.22-.61,.2-1.33,0-1.61-.47-.27-.46,0-1.01,.62-1.21,.61-.2,1.33,0,1.6,.46Z"/><path class="cls-8" d="M153.1,136.64c.27,.46,0,1-.61,1.21-.61,.2-1.33,0-1.6-.47-.28-.46,0-1,.61-1.21,.61-.2,1.33,0,1.6,.47Z"/><path class="cls-8" d="M148.29,198.59c.28,.46,0,1-.61,1.21-.61,.2-1.33,0-1.6-.46-.27-.46,0-1.01,.61-1.22,.61-.2,1.33,0,1.6,.47Z"/><path class="cls-8" d="M147.31,124.51c.27,.46,0,1-.61,1.21-.61,.2-1.33,0-1.6-.47-.28-.46,0-1,.61-1.21,.61-.2,1.33,0,1.6,.47Z"/><path class="cls-8" d="M143.73,129.74c.28,.46,0,1.01-.61,1.21-.61,.2-1.33,0-1.6-.46-.28-.46,0-1.01,.61-1.21,.61-.21,1.33,0,1.6,.46Z"/><path class="cls-8" d="M140.28,123.86c.28,.46,0,1.01-.61,1.21-.61,.21-1.33,0-1.6-.46-.28-.46,0-1.01,.61-1.21,.61-.2,1.33,0,1.6,.46Z"/><path class="cls-8" d="M136.52,141.21c.28,.46,0,1.01-.61,1.22-.61,.2-1.33,0-1.6-.47-.27-.46,0-1,.61-1.21,.61-.2,1.33,0,1.6,.46Z"/><path class="cls-8" d="M134.67,162.95c.28,.46,0,1-.61,1.21-.61,.2-1.33,0-1.6-.47-.28-.46,0-1,.61-1.21,.61-.2,1.33,0,1.6,.47Z"/><path class="cls-8" d="M132.95,196.21c.27,.46,0,1.01-.62,1.21-.61,.21-1.33,0-1.6-.46-.27-.46,0-1.01,.62-1.21,.61-.2,1.33,0,1.6,.46Z"/><path class="cls-8" d="M131.83,192.06c.28,.46,0,1.01-.61,1.21-.61,.2-1.33,0-1.6-.46-.27-.46,0-1.01,.61-1.21,.61-.21,1.33,0,1.6,.46Z"/><path class="cls-8" d="M129.37,124.51c.28,.46,0,1-.61,1.21-.61,.2-1.33,0-1.6-.47-.28-.46,0-1,.61-1.21,.61-.2,1.33,0,1.6,.47Z"/><path class="cls-8" d="M126.84,193.73c.27,.46,0,1.01-.61,1.21-.61,.21-1.33,0-1.61-.46-.27-.46,0-1.01,.62-1.21,.61-.2,1.33,0,1.6,.46Z"/><path class="cls-8" d="M126.66,183.24c.27,.46,0,1.01-.62,1.21-.61,.21-1.33,0-1.6-.46-.27-.46,0-1.01,.62-1.21,.61-.21,1.33,0,1.6,.46Z"/><path class="cls-8" d="M121.11,126.28c.27,.46,0,1.01-.61,1.22-.61,.2-1.33,0-1.61-.47-.27-.46,0-1,.62-1.21,.61-.2,1.33,0,1.6,.46Z"/><path class="cls-8" d="M114.27,140.65c.28,.46,0,1-.61,1.21-.61,.2-1.33,0-1.6-.47-.28-.46,0-1,.61-1.21,.61-.2,1.33,0,1.6,.47Z"/><path class="cls-8" d="M112.05,132.35c.27,.46,0,1.01-.61,1.21-.61,.2-1.33,0-1.61-.46-.27-.46,0-1.01,.62-1.21,.61-.21,1.33,0,1.6,.46Z"/><path class="cls-8" d="M107.92,137.76c.27,.46,0,1.01-.62,1.21-.61,.21-1.33,0-1.6-.46-.27-.46,0-1.01,.62-1.21,.61-.21,1.33,0,1.6,.46Z"/><path class="cls-8" d="M103.91,177.32c.27,.46,0,1-.62,1.21-.61,.2-1.33,0-1.6-.46-.27-.46,0-1.01,.62-1.22,.61-.2,1.33,0,1.6,.47Z"/><path class="cls-8" d="M101.76,163.46c.28,.46,0,1-.61,1.21-.61,.2-1.33,0-1.6-.47-.28-.46,0-1,.61-1.21,.61-.2,1.33,0,1.6,.47Z"/><path class="cls-8" d="M99.72,147.55c.27,.46,0,1.01-.61,1.21-.61,.21-1.33,0-1.6-.46-.28-.46,0-1.01,.61-1.21,.61-.2,1.33,0,1.6,.46Z"/><path class="cls-8" d="M95.9,161.41c.28,.46,0,1.01-.61,1.21-.61,.21-1.33,0-1.6-.46-.27-.46,0-1.01,.61-1.21,.61-.2,1.33,0,1.6,.46Z"/><path class="cls-8" d="M125.3,128.9c.27,.46,0,1-.62,1.21-.61,.2-1.33,0-1.6-.47-.27-.46,0-1,.62-1.21,.61-.2,1.33,0,1.6,.47Z"/><path class="cls-1" d="M205.21,165.45c.17,3.44-2.31,6.13-3.57,9.31-1.46,3.73-3.7,7.34-6.52,10.59-3.52,4.06-5.27,8.82-11.05,11.6-2.59,1.25-5.59,1.9-8.35,2.92-3.15,1.17-5.97,2.78-9.09,3.99-2.87,1.11-5.85,1.43-8.92,1.99-9.61,1.75-20.29,2.09-29.4-1.32-2.13-.8-4.17-1.81-6.5-2.17-2.24-.35-4.63-.08-6.8-.7-2.27-.64-4.46-1.9-6.43-2.95-4.38-2.33-9.38-4.88-12.37-8.25-1.62-1.83-3.24-3.66-4.49-5.64-1.73-2.76-2.69-5.81-4.78-8.44-1.64-2.07-2.35-3.86-2.99-6.26-1.12-4.22-1.45-8.55-.97-12.83,.24-2.16,1.07-4.18,1.41-6.29,.38-2.36,.73-4.31,2.26-6.46,1.68-2.35,3.92-4.44,5.7-6.74,1.99-2.57,3.45-5.48,6.27-7.62,2.76-2.09,5.97-3.89,8.91-5.84,4.48-2.97,9.23-5.22,15.18-6.05,2.49-.35,5.08-.45,7.42-1.2,1.61-.52,3.04-1.33,4.62-1.9,4.03-1.44,10.15-.21,14.44,.09,4.89,.35,9.59,1.61,14.36,2.04,4.67,.42,8.18,2.26,11.75,4.49,2.89,1.81,5.79,3.62,8.68,5.43,6.59,4.12,11.68,9.26,15.15,15.18,2.07,3.52,4.78,6.96,5.6,10.81,.4,1.9,0,3.72-.06,5.6-.07,2.23,.42,4.43,.52,6.65Zm-7.29,4.65c.95-1.74,1.71-3.12,1.64-4.5-.04-.79-.14-1.61-.24-2.48-.17-1.4-.34-2.86-.29-4.42,.02-.66,.07-1.28,.13-1.87,.1-1.13,.18-2.1,0-2.95-.49-2.29-1.96-4.61-3.51-7.06-.56-.87-1.13-1.77-1.67-2.69-3.16-5.37-7.73-9.96-13.59-13.62l-8.68-5.43c-3.26-2.03-5.75-3.27-8.82-3.55-2.55-.23-4.97-.65-7.32-1.06-2.41-.42-4.69-.81-6.91-.97-1.12-.08-2.26-.2-3.46-.33-2.7-.3-6.4-.7-8.04-.15-.49,.17-1.05,.43-1.64,.69-.86,.39-1.82,.82-2.94,1.19l-.24,.08c-2.37,.76-4.69,1.03-6.75,1.26-.62,.07-1.24,.13-1.85,.22-1.62,.23-3.15,.59-4.67,1.1-2.53,.85-5.01,2.11-7.81,3.96-1.11,.73-2.24,1.44-3.34,2.12-1.91,1.19-3.72,2.32-5.31,3.53-1.4,1.06-2.47,2.63-3.62,4.29-.56,.8-1.13,1.63-1.77,2.46-.9,1.16-1.86,2.23-2.79,3.26-1.04,1.16-2.03,2.25-2.81,3.35-1.02,1.43-1.27,2.75-1.62,4.95-.18,1.12-.46,2.15-.73,3.15-.29,1.05-.55,2.05-.65,2.98-.43,3.89-.14,7.8,.88,11.63,.52,1.96,1.04,3.32,2.3,4.91,1.5,1.9,2.46,3.83,3.37,5.69,.55,1.11,1.07,2.16,1.67,3.12,1.07,1.7,2.53,3.35,4.08,5.1,2.25,2.53,6.31,4.68,10.24,6.77l1.47,.78c1.51,.81,3.08,1.66,4.37,2.02,.47,.13,1.41,.17,2.32,.21,1.09,.04,2.31,.1,3.65,.3,2.55,.4,4.62,1.23,6.45,1.97,.47,.19,.94,.38,1.41,.56,6.73,2.52,15.33,2.85,25.57,.99,.69-.13,1.38-.24,2.06-.35,1.93-.32,3.6-.6,5.09-1.1,.17-.06,.35-.12,.53-.19,1.27-.49,2.56-1.1,3.91-1.73,1.65-.78,3.36-1.58,5.27-2.29,.4-.15,.81-.29,1.22-.43,.78-.26,1.56-.51,2.34-.75,.68-.21,1.36-.42,2.03-.64,.92-.31,1.62-.59,2.22-.87,2.81-1.36,4.43-3.65,6.29-6.3,.92-1.32,1.88-2.68,3.06-4.04,2.53-2.92,4.54-6.19,5.83-9.46,.49-1.26,1.13-2.42,1.69-3.45Z"/><path class="cls-2" d="M199.57,165.6c.06,1.38-.69,2.76-1.64,4.5-.56,1.03-1.2,2.19-1.69,3.45-1.29,3.27-3.3,6.54-5.83,9.46-1.18,1.36-2.14,2.72-3.06,4.04-1.86,2.65-3.47,4.95-6.29,6.3-.59,.28-1.29,.56-2.22,.87-.67,.22-1.35,.43-2.03,.64-.78,.24-1.57,.49-2.34,.75-.41,.13-.82,.28-1.22,.43-1.91,.7-3.61,1.51-5.27,2.29-1.36,.64-2.64,1.24-3.91,1.73-.18,.07-.36,.13-.53,.19-1.49,.5-3.16,.78-5.09,1.1-.68,.11-1.37,.23-2.06,.35-10.24,1.86-18.85,1.53-25.57-.99-.48-.18-.95-.37-1.41-.56-1.83-.74-3.9-1.57-6.45-1.97-1.34-.21-2.57-.26-3.65-.3-.91-.04-1.85-.08-2.32-.21-1.29-.36-2.86-1.2-4.37-2.02l-1.47-.78c-3.93-2.09-7.99-4.24-10.24-6.77-1.54-1.75-3.01-3.39-4.08-5.1-.6-.96-1.11-2.01-1.67-3.12-.91-1.86-1.87-3.78-3.37-5.69-1.26-1.58-1.77-2.94-2.3-4.91-1.02-3.82-1.31-7.73-.88-11.63,.1-.93,.37-1.93,.65-2.98,.27-1,.55-2.03,.73-3.15,.36-2.2,.61-3.52,1.62-4.95,.79-1.1,1.77-2.19,2.81-3.35,.93-1.03,1.89-2.1,2.79-3.26,.65-.83,1.22-1.66,1.77-2.46,1.14-1.66,2.22-3.24,3.62-4.29,1.59-1.2,3.39-2.33,5.31-3.53,1.1-.68,2.23-1.39,3.34-2.12,2.8-1.85,5.28-3.11,7.81-3.96,1.52-.51,3.05-.87,4.67-1.1,.61-.09,1.23-.15,1.85-.22,2.06-.23,4.38-.5,6.75-1.26l.24-.08c1.12-.38,2.08-.81,2.94-1.19,.6-.27,1.15-.52,1.64-.69,1.64-.55,5.34-.15,8.04,.15,1.2,.13,2.34,.26,3.46,.33,2.22,.16,4.5,.55,6.91,.97,2.34,.41,4.77,.83,7.32,1.06,3.07,.28,5.56,1.51,8.82,3.55l8.68,5.43c5.86,3.66,10.43,8.25,13.59,13.62,.54,.92,1.11,1.82,1.67,2.69,1.56,2.45,3.03,4.77,3.51,7.06,.18,.85,.09,1.82,0,2.95-.05,.6-.11,1.21-.13,1.87-.05,1.56,.12,3.02,.29,4.42,.1,.87,.2,1.69,.24,2.48Z"/></g><g><path class="cls-4" d="M199.16,142.39c2.07,3.52,4.78,6.96,5.6,10.81,.4,1.9,0,3.72-.06,5.6-.07,2.23,.42,4.43,.52,6.65,.17,3.44-2.31,6.13-3.57,9.31-1.46,3.73-3.7,7.34-6.52,10.59-3.52,4.06-5.27,8.82-11.05,11.6-2.59,1.25-5.59,1.9-8.35,2.92-3.15,1.17-5.97,2.78-9.09,3.99-2.87,1.11-5.85,1.43-8.92,1.99-9.61,1.75-20.29,2.09-29.4-1.32-2.13-.8-4.17-1.81-6.5-2.17-2.24-.35-4.63-.08-6.8-.7-2.27-.64-4.46-1.9-6.43-2.95-4.38-2.33-9.38-4.88-12.37-8.25-1.62-1.83-3.24-3.66-4.49-5.64-1.73-2.76-2.69-5.81-4.78-8.44-1.64-2.07-2.35-3.86-2.99-6.26-1.12-4.22-1.45-8.55-.97-12.83,.24-2.16,1.07-4.18,1.41-6.29,.38-2.36,.73-4.31,2.26-6.46,1.68-2.35,3.92-4.44,5.7-6.74,1.99-2.57,3.45-5.48,6.27-7.62,2.76-2.09,5.97-3.89,8.91-5.84,4.48-2.97,9.23-5.22,15.18-6.05,2.49-.35,5.08-.45,7.42-1.2,1.61-.52,3.04-1.33,4.62-1.9,4.03-1.44,10.15-.21,14.44,.09,4.89,.35,9.59,1.61,14.36,2.04,4.67,.42,8.18,2.26,11.75,4.49,2.89,1.81,5.79,3.62,8.68,5.43,6.59,4.12,11.68,9.26,15.15,15.18Z"/><path class="cls-5" d="M163.55,200.23c-1.49,.5-3.16,.78-5.09,1.1-.68,.11-1.37,.23-2.06,.35-10.24,1.86-18.85,1.53-25.57-.99-.48-.18-.95-.37-1.41-.56-1.83-.74-3.9-1.57-6.45-1.97-1.34-.21-2.57-.26-3.65-.3-.91-.04-1.85-.08-2.32-.21-1.29-.36-2.86-1.2-4.37-2.02l-1.47-.78c-3.93-2.09-7.99-4.24-10.24-6.77-1.54-1.75-3.01-3.39-4.08-5.1-.6-.96-1.11-2.01-1.67-3.12-.91-1.86-1.87-3.78-3.37-5.69-1.26-1.58-1.77-2.94-2.3-4.91-1.02-3.82-1.31-7.73-.88-11.63,.1-.93,.37-1.93,.65-2.98,.27-1,.55-2.03,.73-3.15,.36-2.2,.61-3.52,1.62-4.95,.79-1.1,1.77-2.19,2.81-3.35,.93-1.03,1.89-2.1,2.79-3.26,.65-.83,1.22-1.66,1.77-2.46,1.14-1.66,2.22-3.24,3.62-4.29,1.59-1.2,3.39-2.33,5.31-3.53,1.1-.68,2.23-1.39,3.34-2.12,2.8-1.85,5.28-3.11,7.81-3.96,1.52-.51,3.05-.87,4.67-1.1,.61-.09,1.23-.15,1.85-.22,2.06-.23,4.38-.5,6.75-1.26l.24-.08c1.12-.38,2.08-.81,2.94-1.19,.6-.27,1.15-.52,1.64-.69,1.64-.55,5.34-.15,8.04,.15,1.2,.13,2.34,.26,3.46,.33,2.22,.16,4.5,.55,6.91,.97,2.34,.41,4.77,.83,7.32,1.06,3.07,.28,5.56,1.51,8.82,3.55l8.68,5.43c5.86,3.66,10.43,8.25,13.59,13.62,.54,.92,1.11,1.82,1.67,2.69,1.56,2.45,3.03,4.77,3.51,7.06,.18,.85,.09,1.82,0,2.95-.05,.6-.11,1.21-.13,1.87-.05,1.56,.12,3.02,.29,4.42,.1,.87,.2,1.69,.24,2.48,.06,1.38-.69,2.76-1.64,4.5-.56,1.03-1.2,2.19-1.69,3.45-1.29,3.27-3.3,6.54-5.83,9.46-1.18,1.36-2.14,2.72-3.06,4.04-1.86,2.65-3.47,4.95-6.29,6.3-.59,.28-1.29,.56-2.22,.87-.67,.22-1.35,.43-2.03,.64-.78,.24-1.57,.49-2.34,.75-.41,.13-.82,.28-1.22,.43-1.91,.7-3.61,1.51-5.27,2.29-1.36,.64-2.64,1.24-3.91,1.73-.18,.07-.36,.13-.53,.19Z"/><path class="cls-4" d="M95.9,161.41c.28,.46,0,1.01-.61,1.21-.61,.21-1.33,0-1.6-.46-.27-.46,0-1.01,.61-1.21,.61-.2,1.33,0,1.6,.46Z"/><path class="cls-4" d="M101.76,163.46c.28,.46,0,1-.61,1.21-.61,.2-1.33,0-1.6-.47-.28-.46,0-1,.61-1.21,.61-.2,1.33,0,1.6,.47Z"/><path class="cls-6" d="M122.55,190.93c.75,1.29-.02,2.8-1.71,3.37-1.71,.58-3.7,0-4.46-1.29-.75-1.29,.02-2.8,1.72-3.37,1.71-.57,3.7,.01,4.45,1.29Z"/><path class="cls-6" d="M170,185.26c.75,1.29-.02,2.8-1.72,3.37-1.69,.58-3.68,0-4.45-1.29-.75-1.29,.02-2.8,1.72-3.37,1.69-.57,3.68,.01,4.45,1.29Z"/><path class="cls-6" d="M144.82,182.39c.77,1.29,0,2.8-1.71,3.37-1.71,.57-3.7-.01-4.45-1.29-.75-1.29,.02-2.8,1.71-3.37,1.71-.58,3.7,0,4.45,1.29Z"/><path class="cls-4" d="M170.38,189.94c.28,.46,0,1-.61,1.21-.61,.2-1.33,0-1.6-.46-.27-.46,0-1.01,.61-1.22,.61-.2,1.33,0,1.6,.47Z"/><path class="cls-4" d="M140.28,123.86c.28,.46,0,1.01-.61,1.21-.61,.21-1.33,0-1.6-.46-.28-.46,0-1.01,.61-1.21,.61-.2,1.33,0,1.6,.46Z"/><path class="cls-6" d="M156.24,154.04c.58,1.01-.01,2.18-1.33,2.62-1.33,.45-2.88,0-3.46-1.01-.6-1.01,0-2.18,1.33-2.62,1.33-.44,2.88,0,3.46,1.01Z"/><path class="cls-4" d="M129.37,124.51c.28,.46,0,1-.61,1.21-.61,.2-1.33,0-1.6-.47-.28-.46,0-1,.61-1.21,.61-.2,1.33,0,1.6,.47Z"/><path class="cls-6" d="M137.85,148.97c1.33,2.29-.03,4.96-3.02,5.96-3.02,1.03-6.55,0-7.91-2.29-1.33-2.29,.03-4.96,3.05-5.96,3.02-1,6.55,.02,7.88,2.29Z"/><path class="cls-6" d="M179.35,169.63c.75,1.29-.02,2.8-1.72,3.37-1.69,.58-3.68,0-4.45-1.29-.75-1.29,.02-2.8,1.72-3.37,1.69-.57,3.68,.01,4.45,1.29Z"/><path class="cls-6" d="M180.36,144.29c.77,1.29,0,2.8-1.71,3.37-1.71,.57-3.7-.01-4.45-1.29-.75-1.29,.02-2.8,1.71-3.37,1.71-.58,3.7,0,4.45,1.29Z"/></g></g><path class="cls-7" d="M82.99,142.98c-.06-1.88-.47-3.7-.06-5.6,.82-3.85,3.53-7.29,5.6-10.81,3.47-5.91,8.56-11.06,15.15-15.18,2.89-1.81,5.79-3.62,8.68-5.43,3.57-2.23,7.08-4.07,11.75-4.49,4.77-.43,9.47-1.69,14.36-2.04,4.29-.3,10.42-1.53,14.44-.09,1.58,.56,3.01,1.38,4.62,1.9,2.34,.75,4.93,.86,7.42,1.2,5.95,.83,10.7,3.09,15.18,6.05,2.94,1.95,6.16,3.75,8.91,5.84,2.82,2.14,4.28,5.05,6.27,7.62,1.78,2.3,4.03,4.39,5.7,6.74,1.53,2.15,1.88,4.1,2.26,6.46,.34,2.11,1.17,4.14,1.41,6.29,.48,4.28,.15,8.61-.97,12.83-.64,2.4-1.35,4.19-2.99,6.26-2.09,2.64-3.05,5.68-4.78,8.44-1.25,1.99-2.87,3.82-4.49,5.64-2.99,3.37-7.99,5.92-12.37,8.25-1.97,1.05-4.15,2.3-6.43,2.95-2.18,.61-4.56,.35-6.8,.7-2.33,.37-4.37,1.37-6.5,2.17-9.11,3.41-19.8,3.06-29.4,1.32-3.07-.56-6.05-.88-8.92-1.99-3.12-1.21-5.94-2.82-9.09-3.99-2.76-1.02-5.76-1.67-8.35-2.92-5.78-2.78-7.53-7.54-11.05-11.6-2.81-3.25-5.05-6.86-6.52-10.59-1.25-3.18-3.73-5.87-3.57-9.31,.1-2.22,.59-4.42,.52-6.65Zm8.46,14.74c1.29,3.27,3.3,6.54,5.83,9.46,1.18,1.36,2.14,2.72,3.06,4.04,1.86,2.65,3.47,4.95,6.29,6.3,.59,.28,1.29,.56,2.22,.87,.67,.22,1.35,.43,2.03,.64,.78,.24,1.57,.49,2.34,.75,.41,.13,.82,.28,1.22,.43,1.91,.7,3.61,1.51,5.27,2.29,1.36,.64,2.64,1.24,3.91,1.73,.18,.07,.36,.13,.53,.19,1.49,.5,3.16,.78,5.09,1.1,.68,.11,1.37,.23,2.06,.35,10.24,1.86,18.85,1.53,25.57-.99,.48-.18,.95-.37,1.41-.56,1.83-.74,3.9-1.57,6.45-1.97,1.34-.21,2.57-.26,3.65-.3,.91-.04,1.85-.08,2.32-.21,1.29-.36,2.86-1.2,4.37-2.02l1.47-.78c3.93-2.09,7.99-4.24,10.24-6.77,1.54-1.75,3.01-3.39,4.08-5.1,.6-.96,1.11-2.01,1.67-3.12,.91-1.86,1.87-3.78,3.37-5.69,1.26-1.58,1.77-2.94,2.3-4.91,1.02-3.82,1.31-7.73,.88-11.63-.1-.93-.37-1.93-.65-2.98-.27-1-.55-2.03-.73-3.15-.36-2.2-.61-3.52-1.62-4.95-.79-1.1-1.77-2.19-2.81-3.35-.93-1.03-1.89-2.1-2.79-3.26-.65-.83-1.22-1.66-1.77-2.46-1.14-1.66-2.22-3.24-3.62-4.29-1.59-1.2-3.39-2.33-5.31-3.53-1.1-.68-2.23-1.39-3.34-2.12-2.8-1.85-5.28-3.11-7.81-3.96-1.52-.51-3.05-.87-4.67-1.1-.61-.09-1.23-.15-1.85-.22-2.06-.23-4.38-.5-6.75-1.26l-.24-.08c-1.12-.38-2.08-.81-2.94-1.19-.6-.27-1.15-.52-1.64-.69-1.64-.55-5.34-.15-8.04,.15-1.2,.13-2.34,.26-3.46,.33-2.22,.16-4.5,.55-6.91,.97-2.34,.41-4.77,.83-7.32,1.06-3.07,.28-5.56,1.51-8.82,3.55l-8.68,5.43c-5.86,3.66-10.43,8.25-13.59,13.62-.54,.92-1.11,1.82-1.67,2.69-1.56,2.45-3.03,4.77-3.51,7.06-.18,.85-.09,1.82,0,2.95,.05,.6,.11,1.21,.13,1.87,.05,1.56-.12,3.02-.29,4.42-.1,.87-.2,1.69-.24,2.48-.06,1.38,.69,2.76,1.64,4.5,.56,1.03,1.2,2.19,1.69,3.45Z"/><g><g><path class="cls-8" d="M92.62,143.5c-.27,.46,0,1.01,.62,1.21,.61,.21,1.33,0,1.6-.46,.27-.46,0-1.01-.62-1.21-.61-.21-1.33,0-1.6,.46Z"/><path class="cls-8" d="M96.19,153.25c-.27,.46,0,1,.61,1.21,.61,.2,1.33,0,1.6-.47,.28-.46,0-1-.61-1.21-.61-.2-1.33,0-1.6,.47Z"/><path class="cls-8" d="M96.31,137.2c-.27,.46,0,1.01,.62,1.21,.61,.21,1.33,0,1.6-.46,.27-.46,0-1.01-.62-1.21-.61-.21-1.33,0-1.6,.46Z"/><path class="cls-8" d="M99.58,159.92c-.27,.46,0,1,.62,1.21,.61,.2,1.33,0,1.6-.47,.27-.46,0-1-.62-1.21-.61-.2-1.33,0-1.6,.47Z"/><path class="cls-8" d="M99.77,144.9c-.28,.46,0,1.01,.61,1.21,.61,.21,1.33,0,1.6-.46,.27-.46,0-1.01-.61-1.21-.61-.21-1.33,0-1.6,.46Z"/><path class="cls-8" d="M100.51,125.54c-.27,.46,0,1.01,.62,1.22,.61,.2,1.33,0,1.6-.47,.27-.46,0-1-.62-1.21-.61-.2-1.33,0-1.6,.46Z"/><path class="cls-8" d="M110,116.17c-.27,.46,0,1.01,.62,1.21,.61,.2,1.33,0,1.6-.46,.27-.46,0-1.01-.62-1.22-.61-.2-1.33,0-1.6,.47Z"/><path class="cls-8" d="M115.36,173.77c-.27,.46,0,1,.62,1.21,.61,.2,1.33,0,1.6-.47,.27-.46,0-1-.61-1.21-.61-.2-1.33,0-1.61,.47Z"/><path class="cls-8" d="M117.64,116.73c-.27,.46,0,1,.62,1.21,.61,.2,1.33,0,1.6-.47,.27-.46,0-1-.61-1.21-.61-.2-1.33,0-1.61,.47Z"/><path class="cls-8" d="M118.13,111.36c-.27,.46,0,1.01,.62,1.21,.61,.21,1.33,0,1.6-.46,.27-.46,0-1.01-.62-1.21-.61-.21-1.33,0-1.6,.46Z"/><path class="cls-8" d="M119.25,147.93c-.28,.46,0,1.01,.61,1.21,.61,.2,1.33,0,1.6-.46,.27-.46,0-1.01-.61-1.21-.61-.21-1.33,0-1.6,.46Z"/><path class="cls-8" d="M120.05,170.32c-.27,.46,0,1.01,.62,1.21,.61,.21,1.33,0,1.6-.46,.27-.46,0-1.01-.62-1.21-.61-.2-1.33,0-1.6,.46Z"/><path class="cls-8" d="M120.42,176.48c-.28,.46,0,1.01,.61,1.21,.61,.21,1.33,0,1.6-.46,.28-.46,0-1.01-.61-1.21-.61-.2-1.33,0-1.6,.46Z"/><path class="cls-8" d="M129.54,169.99c-.27,.46,0,1.01,.62,1.21,.61,.21,1.33,0,1.6-.46,.27-.46,0-1.01-.62-1.21-.61-.21-1.33,0-1.6,.46Z"/><path class="cls-8" d="M134.22,157.49c-.27,.46,0,1.01,.61,1.22,.61,.2,1.33,0,1.61-.47,.27-.46,0-1.01-.62-1.21-.61-.2-1.33,0-1.6,.46Z"/><path class="cls-8" d="M134.9,119.01c-.27,.46,0,1,.61,1.21,.61,.2,1.33,0,1.6-.47,.28-.46,0-1-.61-1.21-.61-.2-1.33,0-1.6,.47Z"/><path class="cls-8" d="M139.71,180.96c-.28,.46,0,1,.61,1.21,.61,.2,1.33,0,1.6-.46,.27-.46,0-1.01-.61-1.22-.61-.2-1.33,0-1.6,.47Z"/><path class="cls-8" d="M140.69,106.88c-.27,.46,0,1,.61,1.21,.61,.2,1.33,0,1.6-.47,.28-.46,0-1-.61-1.21-.61-.2-1.33,0-1.6,.47Z"/><path class="cls-8" d="M144.27,112.11c-.28,.46,0,1.01,.61,1.21,.61,.2,1.33,0,1.6-.46,.28-.46,0-1.01-.61-1.21-.61-.21-1.33,0-1.6,.46Z"/><path class="cls-8" d="M147.72,106.23c-.28,.46,0,1.01,.61,1.21,.61,.21,1.33,0,1.6-.46,.28-.46,0-1.01-.61-1.21-.61-.2-1.33,0-1.6,.46Z"/><path class="cls-8" d="M151.48,123.58c-.28,.46,0,1.01,.61,1.22,.61,.2,1.33,0,1.6-.47,.27-.46,0-1-.61-1.21-.61-.2-1.33,0-1.6,.46Z"/><path class="cls-8" d="M153.33,145.32c-.28,.46,0,1,.61,1.21,.61,.2,1.33,0,1.6-.47,.28-.46,0-1-.61-1.21-.61-.2-1.33,0-1.6,.47Z"/><path class="cls-8" d="M155.05,178.57c-.27,.46,0,1.01,.62,1.21,.61,.21,1.33,0,1.6-.46,.27-.46,0-1.01-.62-1.21-.61-.2-1.33,0-1.6,.46Z"/><path class="cls-8" d="M156.17,174.42c-.28,.46,0,1.01,.61,1.21,.61,.2,1.33,0,1.6-.46,.27-.46,0-1.01-.61-1.21-.61-.21-1.33,0-1.6,.46Z"/><path class="cls-8" d="M158.63,106.88c-.28,.46,0,1,.61,1.21,.61,.2,1.33,0,1.6-.47,.28-.46,0-1-.61-1.21-.61-.2-1.33,0-1.6,.47Z"/><path class="cls-8" d="M161.16,176.1c-.27,.46,0,1.01,.61,1.21,.61,.21,1.33,0,1.61-.46,.27-.46,0-1.01-.62-1.21-.61-.2-1.33,0-1.6,.46Z"/><path class="cls-8" d="M161.34,165.61c-.27,.46,0,1.01,.62,1.21,.61,.21,1.33,0,1.6-.46,.27-.46,0-1.01-.62-1.21-.61-.21-1.33,0-1.6,.46Z"/><path class="cls-8" d="M166.89,108.65c-.27,.46,0,1.01,.61,1.22,.61,.2,1.33,0,1.61-.47,.27-.46,0-1-.62-1.21-.61-.2-1.33,0-1.6,.46Z"/><path class="cls-8" d="M173.73,123.02c-.28,.46,0,1,.61,1.21,.61,.2,1.33,0,1.6-.47,.28-.46,0-1-.61-1.21-.61-.2-1.33,0-1.6,.47Z"/><path class="cls-8" d="M175.95,114.72c-.27,.46,0,1.01,.61,1.21,.61,.2,1.33,0,1.61-.46,.27-.46,0-1.01-.62-1.21-.61-.21-1.33,0-1.6,.46Z"/><path class="cls-8" d="M180.08,120.13c-.27,.46,0,1.01,.62,1.21,.61,.21,1.33,0,1.6-.46,.27-.46,0-1.01-.62-1.21-.61-.21-1.33,0-1.6,.46Z"/><path class="cls-8" d="M184.09,159.68c-.27,.46,0,1,.62,1.21,.61,.2,1.33,0,1.6-.46,.27-.46,0-1.01-.62-1.22-.61-.2-1.33,0-1.6,.47Z"/><path class="cls-8" d="M186.24,145.83c-.28,.46,0,1,.61,1.21,.61,.2,1.33,0,1.6-.47,.28-.46,0-1-.61-1.21-.61-.2-1.33,0-1.6,.47Z"/><path class="cls-8" d="M188.28,129.92c-.27,.46,0,1.01,.61,1.21,.61,.21,1.33,0,1.6-.46,.28-.46,0-1.01-.61-1.21-.61-.2-1.33,0-1.6,.46Z"/><path class="cls-8" d="M192.1,143.78c-.28,.46,0,1.01,.61,1.21,.61,.21,1.33,0,1.6-.46,.27-.46,0-1.01-.61-1.21-.61-.2-1.33,0-1.6,.46Z"/><path class="cls-8" d="M162.7,111.27c-.27,.46,0,1,.62,1.21,.61,.2,1.33,0,1.6-.47,.27-.46,0-1-.62-1.21-.61-.2-1.33,0-1.6,.47Z"/><path class="cls-1" d="M83.31,141.17c-.06-1.88-.47-3.7-.06-5.6,.82-3.85,3.53-7.29,5.6-10.81,3.47-5.91,8.56-11.06,15.15-15.18,2.89-1.81,5.79-3.62,8.68-5.43,3.57-2.23,7.08-4.07,11.75-4.49,4.77-.43,9.47-1.69,14.36-2.04,4.29-.3,10.42-1.53,14.44-.09,1.58,.56,3.01,1.38,4.62,1.9,2.34,.75,4.93,.86,7.42,1.2,5.95,.83,10.7,3.09,15.18,6.05,2.94,1.95,6.16,3.75,8.91,5.84,2.82,2.14,4.28,5.05,6.27,7.62,1.78,2.3,4.03,4.39,5.7,6.74,1.53,2.15,1.88,4.1,2.26,6.46,.34,2.11,1.17,4.14,1.41,6.29,.48,4.28,.15,8.61-.97,12.83-.64,2.4-1.35,4.19-2.99,6.26-2.09,2.64-3.05,5.68-4.78,8.44-1.25,1.99-2.87,3.82-4.49,5.64-2.99,3.37-7.99,5.92-12.37,8.25-1.97,1.05-4.15,2.3-6.43,2.95-2.18,.61-4.56,.35-6.8,.7-2.33,.37-4.37,1.37-6.5,2.17-9.11,3.41-19.8,3.06-29.4,1.32-3.07-.56-6.05-.88-8.92-1.99-3.12-1.21-5.94-2.82-9.09-3.99-2.76-1.02-5.76-1.67-8.35-2.92-5.78-2.78-7.53-7.54-11.05-11.6-2.81-3.25-5.05-6.86-6.52-10.59-1.25-3.18-3.73-5.87-3.57-9.31,.1-2.22,.59-4.42,.52-6.65Zm8.46,14.74c1.29,3.27,3.3,6.54,5.83,9.46,1.18,1.36,2.14,2.72,3.06,4.04,1.86,2.65,3.47,4.95,6.29,6.3,.59,.28,1.29,.56,2.22,.87,.67,.22,1.35,.43,2.03,.64,.78,.24,1.57,.49,2.34,.75,.41,.13,.82,.28,1.22,.43,1.91,.7,3.61,1.51,5.27,2.29,1.36,.64,2.64,1.24,3.91,1.73,.18,.07,.36,.13,.53,.19,1.49,.5,3.16,.78,5.09,1.1,.68,.11,1.37,.23,2.06,.35,10.24,1.86,18.85,1.53,25.57-.99,.48-.18,.95-.37,1.41-.56,1.83-.74,3.9-1.57,6.45-1.97,1.34-.21,2.57-.26,3.65-.3,.91-.04,1.85-.08,2.32-.21,1.29-.36,2.86-1.2,4.37-2.02l1.47-.78c3.93-2.09,7.99-4.24,10.24-6.77,1.54-1.75,3.01-3.39,4.08-5.1,.6-.96,1.11-2.01,1.67-3.12,.91-1.86,1.87-3.78,3.37-5.69,1.26-1.58,1.77-2.94,2.3-4.91,1.02-3.82,1.31-7.73,.88-11.63-.1-.93-.37-1.93-.65-2.98-.27-1-.55-2.03-.73-3.15-.36-2.2-.61-3.52-1.62-4.95-.79-1.1-1.77-2.19-2.81-3.35-.93-1.03-1.89-2.1-2.79-3.26-.65-.83-1.22-1.66-1.77-2.46-1.14-1.66-2.22-3.24-3.62-4.29-1.59-1.2-3.39-2.33-5.31-3.53-1.1-.68-2.23-1.39-3.34-2.12-2.8-1.85-5.28-3.11-7.81-3.96-1.52-.51-3.05-.87-4.67-1.1-.61-.09-1.23-.15-1.85-.22-2.06-.23-4.38-.5-6.75-1.26l-.24-.08c-1.12-.38-2.08-.81-2.94-1.19-.6-.27-1.15-.52-1.64-.69-1.64-.55-5.34-.15-8.04,.15-1.2,.13-2.34,.26-3.46,.33-2.22,.16-4.5,.55-6.91,.97-2.34,.41-4.77,.83-7.32,1.06-3.07,.28-5.56,1.51-8.82,3.55l-8.68,5.43c-5.86,3.66-10.43,8.25-13.59,13.62-.54,.92-1.11,1.82-1.67,2.69-1.56,2.45-3.03,4.77-3.51,7.06-.18,.85-.09,1.82,0,2.95,.05,.6,.11,1.21,.13,1.87,.05,1.56-.12,3.02-.29,4.42-.1,.87-.2,1.69-.24,2.48-.06,1.38,.69,2.76,1.64,4.5,.56,1.03,1.2,2.19,1.69,3.45Z"/><path class="cls-2" d="M88.67,145.49c.17-1.4,.34-2.86,.29-4.42-.02-.66-.07-1.28-.13-1.87-.1-1.13-.18-2.1,0-2.95,.49-2.29,1.96-4.61,3.51-7.06,.56-.87,1.13-1.77,1.67-2.69,3.16-5.37,7.73-9.96,13.59-13.62l8.68-5.43c3.26-2.03,5.75-3.27,8.82-3.55,2.55-.23,4.97-.65,7.32-1.06,2.41-.42,4.69-.81,6.91-.97,1.12-.08,2.26-.2,3.46-.33,2.7-.3,6.4-.7,8.04-.15,.49,.17,1.05,.43,1.64,.69,.86,.39,1.82,.82,2.94,1.19l.24,.08c2.37,.76,4.69,1.03,6.75,1.26,.62,.07,1.24,.13,1.85,.22,1.62,.23,3.15,.59,4.67,1.1,2.53,.85,5.01,2.11,7.81,3.96,1.11,.73,2.24,1.44,3.34,2.12,1.91,1.19,3.72,2.32,5.31,3.53,1.4,1.06,2.47,2.63,3.62,4.29,.56,.8,1.13,1.63,1.77,2.46,.9,1.16,1.86,2.23,2.79,3.26,1.04,1.16,2.03,2.25,2.81,3.35,1.02,1.43,1.27,2.75,1.62,4.95,.18,1.12,.46,2.15,.73,3.15,.29,1.05,.55,2.05,.65,2.98,.43,3.89,.14,7.8-.88,11.63-.52,1.96-1.04,3.32-2.3,4.91-1.5,1.9-2.46,3.83-3.37,5.69-.55,1.11-1.07,2.16-1.67,3.12-1.07,1.7-2.53,3.35-4.08,5.1-2.25,2.53-6.31,4.68-10.24,6.77l-1.47,.78c-1.51,.81-3.08,1.66-4.37,2.02-.47,.13-1.41,.17-2.32,.21-1.09,.04-2.31,.1-3.65,.3-2.55,.4-4.62,1.23-6.45,1.97-.47,.19-.94,.38-1.41,.56-6.73,2.52-15.33,2.85-25.57,.99-.69-.13-1.38-.24-2.06-.35-1.93-.32-3.6-.6-5.09-1.1-.17-.06-.35-.12-.53-.19-1.27-.49-2.56-1.1-3.91-1.73-1.65-.78-3.36-1.58-5.27-2.29-.4-.15-.81-.29-1.22-.43-.78-.26-1.56-.51-2.34-.75-.68-.21-1.36-.42-2.03-.64-.92-.31-1.62-.59-2.22-.87-2.81-1.36-4.43-3.65-6.29-6.3-.92-1.32-1.88-2.68-3.06-4.04-2.53-2.92-4.54-6.19-5.83-9.46-.49-1.26-1.13-2.42-1.69-3.45-.95-1.74-1.71-3.12-1.64-4.5,.04-.79,.14-1.61,.24-2.48Z"/></g><g><path class="cls-4" d="M88.84,124.76c-2.07,3.52-4.78,6.96-5.6,10.81-.4,1.9,0,3.72,.06,5.6,.07,2.23-.42,4.43-.52,6.65-.17,3.44,2.31,6.13,3.57,9.31,1.46,3.73,3.7,7.34,6.52,10.59,3.52,4.06,5.27,8.82,11.05,11.6,2.59,1.25,5.59,1.9,8.35,2.92,3.15,1.17,5.97,2.78,9.09,3.99,2.87,1.11,5.85,1.43,8.92,1.99,9.61,1.75,20.29,2.09,29.4-1.32,2.13-.8,4.17-1.81,6.5-2.17,2.24-.35,4.63-.08,6.8-.7,2.27-.64,4.46-1.9,6.43-2.95,4.38-2.33,9.38-4.88,12.37-8.25,1.62-1.83,3.24-3.66,4.49-5.64,1.73-2.76,2.69-5.81,4.78-8.44,1.64-2.07,2.35-3.86,2.99-6.26,1.12-4.22,1.45-8.55,.97-12.83-.24-2.16-1.07-4.18-1.41-6.29-.38-2.36-.73-4.31-2.26-6.46-1.68-2.35-3.92-4.44-5.7-6.74-1.99-2.57-3.45-5.48-6.27-7.62-2.76-2.09-5.97-3.89-8.91-5.84-4.48-2.97-9.23-5.22-15.18-6.05-2.49-.35-5.08-.45-7.42-1.2-1.61-.52-3.04-1.33-4.62-1.9-4.03-1.44-10.15-.21-14.44,.09-4.89,.35-9.59,1.61-14.36,2.04-4.67,.42-8.18,2.26-11.75,4.49-2.89,1.81-5.79,3.62-8.68,5.43-6.59,4.12-11.68,9.26-15.15,15.18Z"/><path class="cls-5" d="M124.45,182.6c1.49,.5,3.16,.78,5.09,1.1,.68,.11,1.37,.23,2.06,.35,10.24,1.86,18.85,1.53,25.57-.99,.48-.18,.95-.37,1.41-.56,1.83-.74,3.9-1.57,6.45-1.97,1.34-.21,2.57-.26,3.65-.3,.91-.04,1.85-.08,2.32-.21,1.29-.36,2.86-1.2,4.37-2.02l1.47-.78c3.93-2.09,7.99-4.24,10.24-6.77,1.54-1.75,3.01-3.39,4.08-5.1,.6-.96,1.11-2.01,1.67-3.12,.91-1.86,1.87-3.78,3.37-5.69,1.26-1.58,1.77-2.94,2.3-4.91,1.02-3.82,1.31-7.73,.88-11.63-.1-.93-.37-1.93-.65-2.98-.27-1-.55-2.03-.73-3.15-.36-2.2-.61-3.52-1.62-4.95-.79-1.1-1.77-2.19-2.81-3.35-.93-1.03-1.89-2.1-2.79-3.26-.65-.83-1.22-1.66-1.77-2.46-1.14-1.66-2.22-3.24-3.62-4.29-1.59-1.2-3.39-2.33-5.31-3.53-1.1-.68-2.23-1.39-3.34-2.12-2.8-1.85-5.28-3.11-7.81-3.96-1.52-.51-3.05-.87-4.67-1.1-.61-.09-1.23-.15-1.85-.22-2.06-.23-4.38-.5-6.75-1.26l-.24-.08c-1.12-.38-2.08-.81-2.94-1.19-.6-.27-1.15-.52-1.64-.69-1.64-.55-5.34-.15-8.04,.15-1.2,.13-2.34,.26-3.46,.33-2.22,.16-4.5,.55-6.91,.97-2.34,.41-4.77,.83-7.32,1.06-3.07,.28-5.56,1.51-8.82,3.55l-8.68,5.43c-5.86,3.66-10.43,8.25-13.59,13.62-.54,.92-1.11,1.82-1.67,2.69-1.56,2.45-3.03,4.77-3.51,7.06-.18,.85-.09,1.82,0,2.95,.05,.6,.11,1.21,.13,1.87,.05,1.56-.12,3.02-.29,4.42-.1,.87-.2,1.69-.24,2.48-.06,1.38,.69,2.76,1.64,4.5,.56,1.03,1.2,2.19,1.69,3.45,1.29,3.27,3.3,6.54,5.83,9.46,1.18,1.36,2.14,2.72,3.06,4.04,1.86,2.65,3.47,4.95,6.29,6.3,.59,.28,1.29,.56,2.22,.87,.67,.22,1.35,.43,2.03,.64,.78,.24,1.57,.49,2.34,.75,.41,.13,.82,.28,1.22,.43,1.91,.7,3.61,1.51,5.27,2.29,1.36,.64,2.64,1.24,3.91,1.73,.18,.07,.36,.13,.53,.19Z"/><path class="cls-4" d="M192.1,143.78c-.28,.46,0,1.01,.61,1.21,.61,.21,1.33,0,1.6-.46,.27-.46,0-1.01-.61-1.21-.61-.2-1.33,0-1.6,.46Z"/><path class="cls-4" d="M186.24,145.83c-.28,.46,0,1,.61,1.21,.61,.2,1.33,0,1.6-.47,.28-.46,0-1-.61-1.21-.61-.2-1.33,0-1.6,.47Z"/><path class="cls-6" d="M157.03,169.41c-.75,1.29,.02,2.8,1.71,3.37,1.71,.58,3.7,0,4.46-1.29,.75-1.29-.02-2.8-1.72-3.37-1.71-.57-3.7,.01-4.45,1.29Z"/><path class="cls-6" d="M140.08,176.28c-.75,1.29,.02,2.8,1.72,3.37,1.69,.58,3.68,0,4.45-1.29,.75-1.29-.02-2.8-1.72-3.37-1.69-.57-3.68,.01-4.45,1.29Z"/><path class="cls-6" d="M143.18,164.76c-.77,1.29,0,2.8,1.71,3.37,1.71,.57,3.7-.01,4.45-1.29,.75-1.29-.02-2.8-1.71-3.37-1.71-.58-3.7,0-4.45,1.29Z"/><path class="cls-4" d="M139.71,180.96c-.28,.46,0,1,.61,1.21,.61,.2,1.33,0,1.6-.46,.27-.46,0-1.01-.61-1.22-.61-.2-1.33,0-1.6,.47Z"/><path class="cls-4" d="M147.72,106.23c-.28,.46,0,1.01,.61,1.21,.61,.21,1.33,0,1.6-.46,.28-.46,0-1.01-.61-1.21-.61-.2-1.33,0-1.6,.46Z"/><path class="cls-6" d="M131.76,136.41c-.58,1.01,.01,2.18,1.33,2.62,1.33,.45,2.88,0,3.46-1.01,.6-1.01,0-2.18-1.33-2.62-1.33-.44-2.88,0-3.46,1.01Z"/><path class="cls-4" d="M158.63,106.88c-.28,.46,0,1,.61,1.21,.61,.2,1.33,0,1.6-.47,.28-.46,0-1-.61-1.21-.61-.2-1.33,0-1.6,.47Z"/><path class="cls-6" d="M150.15,131.34c-1.33,2.29,.03,4.96,3.02,5.96,3.02,1.03,6.55,0,7.91-2.29,1.33-2.29-.03-4.96-3.05-5.96-3.02-1-6.55,.02-7.88,2.29Z"/><path class="cls-6" d="M108.65,152c-.75,1.29,.02,2.8,1.72,3.37,1.69,.58,3.68,0,4.45-1.29,.75-1.29-.02-2.8-1.72-3.37-1.69-.57-3.68,.01-4.45,1.29Z"/><path class="cls-6" d="M107.64,126.66c-.77,1.29,0,2.8,1.71,3.37,1.71,.57,3.7-.01,4.45-1.29,.75-1.29-.02-2.8-1.71-3.37-1.71-.58-3.7,0-4.45,1.29Z"/></g></g><path class="cls-7" d="M205.54,132.13c.17,3.44-2.31,6.13-3.57,9.31-1.46,3.73-3.7,7.34-6.52,10.59-3.52,4.06-5.27,8.82-11.05,11.6-2.59,1.25-5.59,1.9-8.35,2.92-3.15,1.17-5.97,2.78-9.09,3.99-2.87,1.11-5.85,1.43-8.92,1.99-9.61,1.75-20.29,2.09-29.4-1.32-2.13-.8-4.17-1.81-6.5-2.17-2.24-.35-4.63-.08-6.8-.7-2.27-.64-4.46-1.9-6.43-2.95-4.38-2.33-9.38-4.88-12.37-8.25-1.62-1.83-3.24-3.66-4.49-5.64-1.73-2.76-2.69-5.81-4.78-8.44-1.64-2.07-2.35-3.86-2.99-6.26-1.12-4.22-1.45-8.55-.97-12.83,.24-2.16,1.07-4.18,1.41-6.29,.38-2.36,.73-4.31,2.26-6.46,1.68-2.35,3.92-4.44,5.7-6.74,1.99-2.57,3.45-5.48,6.27-7.62,2.76-2.09,5.97-3.89,8.91-5.84,4.48-2.97,9.23-5.22,15.18-6.05,2.49-.35,5.08-.45,7.42-1.2,1.61-.52,3.04-1.33,4.62-1.9,4.03-1.44,10.15-.21,14.44,.09,4.89,.35,9.59,1.61,14.36,2.04,4.67,.42,8.18,2.26,11.75,4.49,2.89,1.81,5.79,3.62,8.68,5.43,6.59,4.12,11.68,9.26,15.15,15.18,2.07,3.52,4.78,6.96,5.6,10.81,.4,1.9,0,3.72-.06,5.6-.07,2.23,.42,4.43,.52,6.65Zm-7.29,4.65c.95-1.74,1.71-3.12,1.64-4.5-.04-.79-.14-1.61-.24-2.48-.17-1.4-.34-2.86-.29-4.42,.02-.66,.07-1.28,.13-1.87,.1-1.13,.18-2.1,0-2.95-.49-2.29-1.96-4.61-3.51-7.06-.56-.87-1.13-1.77-1.67-2.69-3.16-5.37-7.73-9.96-13.59-13.62l-8.68-5.43c-3.26-2.03-5.75-3.27-8.82-3.55-2.55-.23-4.97-.65-7.32-1.06-2.41-.42-4.69-.81-6.91-.97-1.12-.08-2.26-.2-3.46-.33-2.7-.3-6.4-.7-8.04-.15-.49,.17-1.05,.43-1.64,.69-.86,.39-1.82,.82-2.94,1.19l-.24,.08c-2.37,.76-4.69,1.03-6.75,1.26-.62,.07-1.24,.13-1.85,.22-1.62,.23-3.15,.59-4.67,1.1-2.53,.85-5.01,2.11-7.81,3.96-1.11,.73-2.24,1.44-3.34,2.12-1.91,1.19-3.72,2.32-5.31,3.53-1.4,1.06-2.47,2.63-3.62,4.29-.56,.8-1.13,1.63-1.77,2.46-.9,1.16-1.86,2.23-2.79,3.26-1.04,1.16-2.03,2.25-2.81,3.35-1.02,1.43-1.27,2.75-1.62,4.95-.18,1.12-.46,2.15-.73,3.15-.29,1.05-.55,2.05-.65,2.98-.43,3.89-.14,7.8,.88,11.63,.52,1.96,1.04,3.32,2.3,4.91,1.5,1.9,2.46,3.83,3.37,5.69,.55,1.11,1.07,2.16,1.67,3.12,1.07,1.7,2.53,3.35,4.08,5.1,2.25,2.53,6.31,4.68,10.24,6.77l1.47,.78c1.51,.81,3.08,1.66,4.37,2.02,.47,.13,1.41,.17,2.32,.21,1.09,.04,2.31,.1,3.65,.3,2.55,.4,4.62,1.23,6.45,1.97,.47,.19,.94,.38,1.41,.56,6.73,2.52,15.33,2.85,25.57,.99,.69-.13,1.38-.24,2.06-.35,1.93-.32,3.6-.6,5.09-1.1,.17-.06,.35-.12,.53-.19,1.27-.49,2.56-1.1,3.91-1.73,1.65-.78,3.36-1.58,5.27-2.29,.4-.15,.81-.29,1.22-.43,.78-.26,1.56-.51,2.34-.75,.68-.21,1.36-.42,2.03-.64,.92-.31,1.62-.59,2.22-.87,2.81-1.36,4.43-3.65,6.29-6.3,.92-1.32,1.88-2.68,3.06-4.04,2.53-2.92,4.54-6.19,5.83-9.46,.49-1.26,1.13-2.42,1.69-3.45Z"/><g><g><path class="cls-8" d="M195.38,125.87c.27,.46,0,1.01-.62,1.21-.61,.21-1.33,0-1.6-.46-.27-.46,0-1.01,.62-1.21,.61-.21,1.33,0,1.6,.46Z"/><path class="cls-8" d="M191.81,135.62c.27,.46,0,1-.61,1.21-.61,.2-1.33,0-1.6-.47-.28-.46,0-1,.61-1.21,.61-.2,1.33,0,1.6,.47Z"/><path class="cls-8" d="M191.69,119.57c.27,.46,0,1.01-.62,1.21-.61,.21-1.33,0-1.6-.46-.27-.46,0-1.01,.62-1.21,.61-.21,1.33,0,1.6,.46Z"/><path class="cls-8" d="M188.42,142.29c.27,.46,0,1-.62,1.21-.61,.2-1.33,0-1.6-.47-.27-.46,0-1,.62-1.21,.61-.2,1.33,0,1.6,.47Z"/><path class="cls-8" d="M188.23,127.27c.28,.46,0,1.01-.61,1.21-.61,.21-1.33,0-1.6-.46-.27-.46,0-1.01,.61-1.21,.61-.21,1.33,0,1.6,.46Z"/><path class="cls-8" d="M187.49,107.91c.27,.46,0,1.01-.62,1.22-.61,.2-1.33,0-1.6-.47-.27-.46,0-1,.62-1.21,.61-.2,1.33,0,1.6,.46Z"/><path class="cls-8" d="M178,98.53c.27,.46,0,1.01-.62,1.21-.61,.2-1.33,0-1.6-.46-.27-.46,0-1.01,.62-1.22,.61-.2,1.33,0,1.6,.47Z"/><path class="cls-8" d="M172.64,156.14c.27,.46,0,1-.62,1.21-.61,.2-1.33,0-1.6-.47-.27-.46,0-1,.61-1.21,.61-.2,1.33,0,1.61,.47Z"/><path class="cls-8" d="M170.36,99.09c.27,.46,0,1-.62,1.21-.61,.2-1.33,0-1.6-.47-.27-.46,0-1,.61-1.21,.61-.2,1.33,0,1.61,.47Z"/><path class="cls-8" d="M169.87,93.73c.27,.46,0,1.01-.62,1.21-.61,.21-1.33,0-1.6-.46-.27-.46,0-1.01,.62-1.21,.61-.21,1.33,0,1.6,.46Z"/><path class="cls-8" d="M168.75,130.3c.28,.46,0,1.01-.61,1.21-.61,.2-1.33,0-1.6-.46-.27-.46,0-1.01,.61-1.21,.61-.21,1.33,0,1.6,.46Z"/><path class="cls-8" d="M167.95,152.69c.27,.46,0,1.01-.62,1.21-.61,.21-1.33,0-1.6-.46-.27-.46,0-1.01,.62-1.21,.61-.2,1.33,0,1.6,.46Z"/><path class="cls-8" d="M167.58,158.84c.28,.46,0,1.01-.61,1.21-.61,.21-1.33,0-1.6-.46-.28-.46,0-1.01,.61-1.21,.61-.2,1.33,0,1.6,.46Z"/><path class="cls-8" d="M158.46,152.36c.27,.46,0,1.01-.62,1.21-.61,.21-1.33,0-1.6-.46-.27-.46,0-1.01,.62-1.21,.61-.21,1.33,0,1.6,.46Z"/><path class="cls-8" d="M153.78,139.86c.27,.46,0,1.01-.61,1.22-.61,.2-1.33,0-1.61-.47-.27-.46,0-1.01,.62-1.21,.61-.2,1.33,0,1.6,.46Z"/><path class="cls-8" d="M153.1,101.38c.27,.46,0,1-.61,1.21-.61,.2-1.33,0-1.6-.47-.28-.46,0-1,.61-1.21,.61-.2,1.33,0,1.6,.47Z"/><path class="cls-8" d="M148.29,163.32c.28,.46,0,1-.61,1.21-.61,.2-1.33,0-1.6-.46-.27-.46,0-1.01,.61-1.22,.61-.2,1.33,0,1.6,.47Z"/><path class="cls-8" d="M147.31,89.25c.27,.46,0,1-.61,1.21-.61,.2-1.33,0-1.6-.47-.28-.46,0-1,.61-1.21,.61-.2,1.33,0,1.6,.47Z"/><path class="cls-8" d="M143.73,94.47c.28,.46,0,1.01-.61,1.21-.61,.2-1.33,0-1.6-.46-.28-.46,0-1.01,.61-1.21,.61-.21,1.33,0,1.6,.46Z"/><path class="cls-8" d="M140.28,88.6c.28,.46,0,1.01-.61,1.21-.61,.21-1.33,0-1.6-.46-.28-.46,0-1.01,.61-1.21,.61-.2,1.33,0,1.6,.46Z"/><path class="cls-8" d="M136.52,105.95c.28,.46,0,1.01-.61,1.22-.61,.2-1.33,0-1.6-.47-.27-.46,0-1,.61-1.21,.61-.2,1.33,0,1.6,.46Z"/><path class="cls-8" d="M134.67,127.69c.28,.46,0,1-.61,1.21-.61,.2-1.33,0-1.6-.47-.28-.46,0-1,.61-1.21,.61-.2,1.33,0,1.6,.47Z"/><path class="cls-8" d="M132.95,160.94c.27,.46,0,1.01-.62,1.21-.61,.21-1.33,0-1.6-.46-.27-.46,0-1.01,.62-1.21,.61-.2,1.33,0,1.6,.46Z"/><path class="cls-8" d="M131.83,156.79c.28,.46,0,1.01-.61,1.21-.61,.2-1.33,0-1.6-.46-.27-.46,0-1.01,.61-1.21,.61-.21,1.33,0,1.6,.46Z"/><path class="cls-8" d="M129.37,89.25c.28,.46,0,1-.61,1.21-.61,.2-1.33,0-1.6-.47-.28-.46,0-1,.61-1.21,.61-.2,1.33,0,1.6,.47Z"/><path class="cls-8" d="M126.84,158.47c.27,.46,0,1.01-.61,1.21-.61,.21-1.33,0-1.61-.46-.27-.46,0-1.01,.62-1.21,.61-.2,1.33,0,1.6,.46Z"/><path class="cls-8" d="M126.66,147.98c.27,.46,0,1.01-.62,1.21-.61,.21-1.33,0-1.6-.46-.27-.46,0-1.01,.62-1.21,.61-.21,1.33,0,1.6,.46Z"/><path class="cls-8" d="M121.11,91.02c.27,.46,0,1.01-.61,1.22-.61,.2-1.33,0-1.61-.47-.27-.46,0-1,.62-1.21,.61-.2,1.33,0,1.6,.46Z"/><path class="cls-8" d="M114.27,105.39c.28,.46,0,1-.61,1.21-.61,.2-1.33,0-1.6-.47-.28-.46,0-1,.61-1.21,.61-.2,1.33,0,1.6,.47Z"/><path class="cls-8" d="M112.05,97.09c.27,.46,0,1.01-.61,1.21-.61,.2-1.33,0-1.61-.46-.27-.46,0-1.01,.62-1.21,.61-.21,1.33,0,1.6,.46Z"/><path class="cls-8" d="M107.92,102.5c.27,.46,0,1.01-.62,1.21-.61,.21-1.33,0-1.6-.46-.27-.46,0-1.01,.62-1.21,.61-.21,1.33,0,1.6,.46Z"/><path class="cls-8" d="M103.91,142.05c.27,.46,0,1-.62,1.21-.61,.2-1.33,0-1.6-.46-.27-.46,0-1.01,.62-1.22,.61-.2,1.33,0,1.6,.47Z"/><path class="cls-8" d="M101.76,128.2c.28,.46,0,1-.61,1.21-.61,.2-1.33,0-1.6-.47-.28-.46,0-1,.61-1.21,.61-.2,1.33,0,1.6,.47Z"/><path class="cls-8" d="M99.72,112.29c.27,.46,0,1.01-.61,1.21-.61,.21-1.33,0-1.6-.46-.28-.46,0-1.01,.61-1.21,.61-.2,1.33,0,1.6,.46Z"/><path class="cls-8" d="M95.9,126.14c.28,.46,0,1.01-.61,1.21-.61,.21-1.33,0-1.6-.46-.27-.46,0-1.01,.61-1.21,.61-.2,1.33,0,1.6,.46Z"/><path class="cls-8" d="M125.3,93.64c.27,.46,0,1-.62,1.21-.61,.2-1.33,0-1.6-.47-.27-.46,0-1,.62-1.21,.61-.2,1.33,0,1.6,.47Z"/><path class="cls-1" d="M205.21,130.19c.17,3.44-2.31,6.13-3.57,9.31-1.46,3.73-3.7,7.34-6.52,10.59-3.52,4.06-5.27,8.82-11.05,11.6-2.59,1.25-5.59,1.9-8.35,2.92-3.15,1.17-5.97,2.78-9.09,3.99-2.87,1.11-5.85,1.43-8.92,1.99-9.61,1.75-20.29,2.09-29.4-1.32-2.13-.8-4.17-1.81-6.5-2.17-2.24-.35-4.63-.08-6.8-.7-2.27-.64-4.46-1.9-6.43-2.95-4.38-2.33-9.38-4.88-12.37-8.25-1.62-1.83-3.24-3.66-4.49-5.64-1.73-2.76-2.69-5.81-4.78-8.44-1.64-2.07-2.35-3.86-2.99-6.26-1.12-4.22-1.45-8.55-.97-12.83,.24-2.16,1.07-4.18,1.41-6.29,.38-2.36,.73-4.31,2.26-6.46,1.68-2.35,3.92-4.44,5.7-6.74,1.99-2.57,3.45-5.48,6.27-7.62,2.76-2.09,5.97-3.89,8.91-5.84,4.48-2.97,9.23-5.22,15.18-6.05,2.49-.35,5.08-.45,7.42-1.2,1.61-.52,3.04-1.33,4.62-1.9,4.03-1.44,10.15-.21,14.44,.09,4.89,.35,9.59,1.61,14.36,2.04,4.67,.42,8.18,2.26,11.75,4.49,2.89,1.81,5.79,3.62,8.68,5.43,6.59,4.12,11.68,9.26,15.15,15.18,2.07,3.52,4.78,6.96,5.6,10.81,.4,1.9,0,3.72-.06,5.6-.07,2.23,.42,4.43,.52,6.65Zm-7.29,4.65c.95-1.74,1.71-3.12,1.64-4.5-.04-.79-.14-1.61-.24-2.48-.17-1.4-.34-2.86-.29-4.42,.02-.66,.07-1.28,.13-1.87,.1-1.13,.18-2.1,0-2.95-.49-2.29-1.96-4.61-3.51-7.06-.56-.87-1.13-1.77-1.67-2.69-3.16-5.37-7.73-9.96-13.59-13.62l-8.68-5.43c-3.26-2.03-5.75-3.27-8.82-3.55-2.55-.23-4.97-.65-7.32-1.06-2.41-.42-4.69-.81-6.91-.97-1.12-.08-2.26-.2-3.46-.33-2.7-.3-6.4-.7-8.04-.15-.49,.17-1.05,.43-1.64,.69-.86,.39-1.82,.82-2.94,1.19l-.24,.08c-2.37,.76-4.69,1.03-6.75,1.26-.62,.07-1.24,.13-1.85,.22-1.62,.23-3.15,.59-4.67,1.1-2.53,.85-5.01,2.11-7.81,3.96-1.11,.73-2.24,1.44-3.34,2.12-1.91,1.19-3.72,2.32-5.31,3.53-1.4,1.06-2.47,2.63-3.62,4.29-.56,.8-1.13,1.63-1.77,2.46-.9,1.16-1.86,2.23-2.79,3.26-1.04,1.16-2.03,2.25-2.81,3.35-1.02,1.43-1.27,2.75-1.62,4.95-.18,1.12-.46,2.15-.73,3.15-.29,1.05-.55,2.05-.65,2.98-.43,3.89-.14,7.8,.88,11.63,.52,1.96,1.04,3.32,2.3,4.91,1.5,1.9,2.46,3.83,3.37,5.69,.55,1.11,1.07,2.16,1.67,3.12,1.07,1.7,2.53,3.35,4.08,5.1,2.25,2.53,6.31,4.68,10.24,6.77l1.47,.78c1.51,.81,3.08,1.66,4.37,2.02,.47,.13,1.41,.17,2.32,.21,1.09,.04,2.31,.1,3.65,.3,2.55,.4,4.62,1.23,6.45,1.97,.47,.19,.94,.38,1.41,.56,6.73,2.52,15.33,2.85,25.57,.99,.69-.13,1.38-.24,2.06-.35,1.93-.32,3.6-.6,5.09-1.1,.17-.06,.35-.12,.53-.19,1.27-.49,2.56-1.1,3.91-1.73,1.65-.78,3.36-1.58,5.27-2.29,.4-.15,.81-.29,1.22-.43,.78-.26,1.56-.51,2.34-.75,.68-.21,1.36-.42,2.03-.64,.92-.31,1.62-.59,2.22-.87,2.81-1.36,4.43-3.65,6.29-6.3,.92-1.32,1.88-2.68,3.06-4.04,2.53-2.92,4.54-6.19,5.83-9.46,.49-1.26,1.13-2.42,1.69-3.45Z"/><path class="cls-2" d="M199.57,130.34c.06,1.38-.69,2.76-1.64,4.5-.56,1.03-1.2,2.19-1.69,3.45-1.29,3.27-3.3,6.54-5.83,9.46-1.18,1.36-2.14,2.72-3.06,4.04-1.86,2.65-3.47,4.95-6.29,6.3-.59,.28-1.29,.56-2.22,.87-.67,.22-1.35,.43-2.03,.64-.78,.24-1.57,.49-2.34,.75-.41,.13-.82,.28-1.22,.43-1.91,.7-3.61,1.51-5.27,2.29-1.36,.64-2.64,1.24-3.91,1.73-.18,.07-.36,.13-.53,.19-1.49,.5-3.16,.78-5.09,1.1-.68,.11-1.37,.23-2.06,.35-10.24,1.86-18.85,1.53-25.57-.99-.48-.18-.95-.37-1.41-.56-1.83-.74-3.9-1.57-6.45-1.97-1.34-.21-2.57-.26-3.65-.3-.91-.04-1.85-.08-2.32-.21-1.29-.36-2.86-1.2-4.37-2.02l-1.47-.78c-3.93-2.09-7.99-4.24-10.24-6.77-1.54-1.75-3.01-3.39-4.08-5.1-.6-.96-1.11-2.01-1.67-3.12-.91-1.86-1.87-3.78-3.37-5.69-1.26-1.58-1.77-2.94-2.3-4.91-1.02-3.82-1.31-7.73-.88-11.63,.1-.93,.37-1.93,.65-2.98,.27-1,.55-2.03,.73-3.15,.36-2.2,.61-3.52,1.62-4.95,.79-1.1,1.77-2.19,2.81-3.35,.93-1.03,1.89-2.1,2.79-3.26,.65-.83,1.22-1.66,1.77-2.46,1.14-1.66,2.22-3.24,3.62-4.29,1.59-1.2,3.39-2.33,5.31-3.53,1.1-.68,2.23-1.39,3.34-2.12,2.8-1.85,5.28-3.11,7.81-3.96,1.52-.51,3.05-.87,4.67-1.1,.61-.09,1.23-.15,1.85-.22,2.06-.23,4.38-.5,6.75-1.26l.24-.08c1.12-.38,2.08-.81,2.94-1.19,.6-.27,1.15-.52,1.64-.69,1.64-.55,5.34-.15,8.04,.15,1.2,.13,2.34,.26,3.46,.33,2.22,.16,4.5,.55,6.91,.97,2.34,.41,4.77,.83,7.32,1.06,3.07,.28,5.56,1.51,8.82,3.55l8.68,5.43c5.86,3.66,10.43,8.25,13.59,13.62,.54,.92,1.11,1.82,1.67,2.69,1.56,2.45,3.03,4.77,3.51,7.06,.18,.85,.09,1.82,0,2.95-.05,.6-.11,1.21-.13,1.87-.05,1.56,.12,3.02,.29,4.42,.1,.87,.2,1.69,.24,2.48Z"/></g><g><path class="cls-4" d="M199.16,107.13c2.07,3.52,4.78,6.96,5.6,10.81,.4,1.9,0,3.72-.06,5.6-.07,2.23,.42,4.43,.52,6.65,.17,3.44-2.31,6.13-3.57,9.31-1.46,3.73-3.7,7.34-6.52,10.59-3.52,4.06-5.27,8.82-11.05,11.6-2.59,1.25-5.59,1.9-8.35,2.92-3.15,1.17-5.97,2.78-9.09,3.99-2.87,1.11-5.85,1.43-8.92,1.99-9.61,1.75-20.29,2.09-29.4-1.32-2.13-.8-4.17-1.81-6.5-2.17-2.24-.35-4.63-.08-6.8-.7-2.27-.64-4.46-1.9-6.43-2.95-4.38-2.33-9.38-4.88-12.37-8.25-1.62-1.83-3.24-3.66-4.49-5.64-1.73-2.76-2.69-5.81-4.78-8.44-1.64-2.07-2.35-3.86-2.99-6.26-1.12-4.22-1.45-8.55-.97-12.83,.24-2.16,1.07-4.18,1.41-6.29,.38-2.36,.73-4.31,2.26-6.46,1.68-2.35,3.92-4.44,5.7-6.74,1.99-2.57,3.45-5.48,6.27-7.62,2.76-2.09,5.97-3.89,8.91-5.84,4.48-2.97,9.23-5.22,15.18-6.05,2.49-.35,5.08-.45,7.42-1.2,1.61-.52,3.04-1.33,4.62-1.9,4.03-1.44,10.15-.21,14.44,.09,4.89,.35,9.59,1.61,14.36,2.04,4.67,.42,8.18,2.26,11.75,4.49,2.89,1.81,5.79,3.62,8.68,5.43,6.59,4.12,11.68,9.26,15.15,15.18Z"/><path class="cls-5" d="M163.55,164.97c-1.49,.5-3.16,.78-5.09,1.1-.68,.11-1.37,.23-2.06,.35-10.24,1.86-18.85,1.53-25.57-.99-.48-.18-.95-.37-1.41-.56-1.83-.74-3.9-1.57-6.45-1.97-1.34-.21-2.57-.26-3.65-.3-.91-.04-1.85-.08-2.32-.21-1.29-.36-2.86-1.2-4.37-2.02l-1.47-.78c-3.93-2.09-7.99-4.24-10.24-6.77-1.54-1.75-3.01-3.39-4.08-5.1-.6-.96-1.11-2.01-1.67-3.12-.91-1.86-1.87-3.78-3.37-5.69-1.26-1.58-1.77-2.94-2.3-4.91-1.02-3.82-1.31-7.73-.88-11.63,.1-.93,.37-1.93,.65-2.98,.27-1,.55-2.03,.73-3.15,.36-2.2,.61-3.52,1.62-4.95,.79-1.1,1.77-2.19,2.81-3.35,.93-1.03,1.89-2.1,2.79-3.26,.65-.83,1.22-1.66,1.77-2.46,1.14-1.66,2.22-3.24,3.62-4.29,1.59-1.2,3.39-2.33,5.31-3.53,1.1-.68,2.23-1.39,3.34-2.12,2.8-1.85,5.28-3.11,7.81-3.96,1.52-.51,3.05-.87,4.67-1.1,.61-.09,1.23-.15,1.85-.22,2.06-.23,4.38-.5,6.75-1.26l.24-.08c1.12-.38,2.08-.81,2.94-1.19,.6-.27,1.15-.52,1.64-.69,1.64-.55,5.34-.15,8.04,.15,1.2,.13,2.34,.26,3.46,.33,2.22,.16,4.5,.55,6.91,.97,2.34,.41,4.77,.83,7.32,1.06,3.07,.28,5.56,1.51,8.82,3.55l8.68,5.43c5.86,3.66,10.43,8.25,13.59,13.62,.54,.92,1.11,1.82,1.67,2.69,1.56,2.45,3.03,4.77,3.51,7.06,.18,.85,.09,1.82,0,2.95-.05,.6-.11,1.21-.13,1.87-.05,1.56,.12,3.02,.29,4.42,.1,.87,.2,1.69,.24,2.48,.06,1.38-.69,2.76-1.64,4.5-.56,1.03-1.2,2.19-1.69,3.45-1.29,3.27-3.3,6.54-5.83,9.46-1.18,1.36-2.14,2.72-3.06,4.04-1.86,2.65-3.47,4.95-6.29,6.3-.59,.28-1.29,.56-2.22,.87-.67,.22-1.35,.43-2.03,.64-.78,.24-1.57,.49-2.34,.75-.41,.13-.82,.28-1.22,.43-1.91,.7-3.61,1.51-5.27,2.29-1.36,.64-2.64,1.24-3.91,1.73-.18,.07-.36,.13-.53,.19Z"/><path class="cls-4" d="M95.9,126.14c.28,.46,0,1.01-.61,1.21-.61,.21-1.33,0-1.6-.46-.27-.46,0-1.01,.61-1.21,.61-.2,1.33,0,1.6,.46Z"/><path class="cls-4" d="M101.76,128.2c.28,.46,0,1-.61,1.21-.61,.2-1.33,0-1.6-.47-.28-.46,0-1,.61-1.21,.61-.2,1.33,0,1.6,.47Z"/><path class="cls-6" d="M130.97,151.78c.75,1.29-.02,2.8-1.71,3.37-1.71,.58-3.7,0-4.46-1.29-.75-1.29,.02-2.8,1.72-3.37,1.71-.57,3.7,.01,4.45,1.29Z"/><path class="cls-6" d="M147.92,158.65c.75,1.29-.02,2.8-1.72,3.37-1.69,.58-3.68,0-4.45-1.29-.75-1.29,.02-2.8,1.72-3.37,1.69-.57,3.68,.01,4.45,1.29Z"/><path class="cls-6" d="M144.82,147.12c.77,1.29,0,2.8-1.71,3.37-1.71,.57-3.7-.01-4.45-1.29-.75-1.29,.02-2.8,1.71-3.37,1.71-.58,3.7,0,4.45,1.29Z"/><path class="cls-4" d="M148.29,163.32c.28,.46,0,1-.61,1.21-.61,.2-1.33,0-1.6-.46-.27-.46,0-1.01,.61-1.22,.61-.2,1.33,0,1.6,.47Z"/><path class="cls-4" d="M140.28,88.6c.28,.46,0,1.01-.61,1.21-.61,.21-1.33,0-1.6-.46-.28-.46,0-1.01,.61-1.21,.61-.2,1.33,0,1.6,.46Z"/><path class="cls-6" d="M156.24,118.78c.58,1.01-.01,2.18-1.33,2.62-1.33,.45-2.88,0-3.46-1.01-.6-1.01,0-2.18,1.33-2.62,1.33-.44,2.88,0,3.46,1.01Z"/><path class="cls-4" d="M129.37,89.25c.28,.46,0,1-.61,1.21-.61,.2-1.33,0-1.6-.47-.28-.46,0-1,.61-1.21,.61-.2,1.33,0,1.6,.47Z"/><path class="cls-6" d="M137.85,113.71c1.33,2.29-.03,4.96-3.02,5.96-3.02,1.03-6.55,0-7.91-2.29-1.33-2.29,.03-4.96,3.05-5.96,3.02-1,6.55,.02,7.88,2.29Z"/><path class="cls-6" d="M179.35,134.36c.75,1.29-.02,2.8-1.72,3.37-1.69,.58-3.68,0-4.45-1.29-.75-1.29,.02-2.8,1.72-3.37,1.69-.57,3.68,.01,4.45,1.29Z"/><path class="cls-6" d="M180.36,109.03c.77,1.29,0,2.8-1.71,3.37-1.71,.57-3.7-.01-4.45-1.29-.75-1.29,.02-2.8,1.71-3.37,1.71-.58,3.7,0,4.45,1.29Z"/></g></g></g></g></g></svg>